<svg width="850" height="850" viewBox="0 0 850 850" fill="none" xmlns="http://www.w3.org/2000/svg">
<g clip-path="url(#clip0_526_65)">
<rect width="850" height="850" rx="125" fill="white"/>
<g filter="url(#filter0_d_526_65)">
<rect y="847" width="850" height="850" rx="125" transform="rotate(-90 0 847)" fill="#C5B29E"/>
</g>
<rect opacity="0.22" y="847" width="850" height="850" rx="125" transform="rotate(-90 0 847)" fill="url(#paint0_linear_526_65)"/>
<path d="M126.898 98C164.873 98 195.723 123.129 196.288 154.305C198.647 154.128 201.042 154.038 203.466 154.038C241.317 154.038 272.001 176.086 272.001 203.283C272.001 230.48 241.317 252.528 203.466 252.528C197.993 252.528 192.671 252.064 187.569 251.193C177.063 262.966 152.827 271.208 124.607 271.208C111.266 271.208 98.8151 269.363 88.2842 266.177C76.7856 273.299 57.0606 278 34.6553 278C-0.829569 278 -29.5961 266.216 -29.5967 251.68C-29.5967 245.139 -23.7713 239.155 -14.1309 234.552C-24.0439 226.001 -30 215.036 -30 203.079C-29.9999 175.769 1.07034 153.63 39.3975 153.63C45.661 153.63 51.7309 154.221 57.5029 155.329C57.5028 155.278 57.501 155.227 57.501 155.176C57.501 123.599 88.5714 98.0002 126.898 98Z" fill="#EFCEB2"/>
<g opacity="0.95">
<rect width="300" height="406.128" transform="matrix(-1 0 0 1 852 434.046)" fill="#070D22"/>
<path d="M852 900.758L552 839.687H852V900.758Z" fill="#070D22"/>
<g filter="url(#filter1_i_526_65)">
<path d="M852 362L552 434.046H852V362Z" fill="#070D22"/>
</g>
</g>
<path opacity="0.78" d="M160.109 5C125.661 5 97.7344 35.3148 97.7344 72.71C97.7344 72.7708 97.7362 72.8317 97.7363 72.8926C92.5482 71.5797 87.0919 70.8799 81.4619 70.8799C47.0132 70.88 19.0869 97.0987 19.0869 129.44C19.0869 129.443 19.0879 129.445 19.0879 129.447C18.6369 129.443 18.1847 129.44 17.7314 129.44C-17.466 129.44 -45.9995 141.73 -46 156.89C-46 172.05 -17.4663 184.34 17.7314 184.34C29.7944 184.34 41.0743 182.896 50.6914 180.388C59.7713 185.232 70.272 188 81.4619 188C112.851 188 138.824 166.232 143.19 137.898C148.571 139.541 154.246 140.42 160.109 140.42C163.012 140.42 165.868 140.204 168.665 139.787C175.827 167.194 210.934 188 253.164 188C300.57 188 339 161.782 339 129.44C339 97.0987 300.57 70.8799 253.164 70.8799C242.344 70.8799 231.991 72.2464 222.456 74.7393C222.474 74.0653 222.484 73.3888 222.484 72.71C222.484 35.3149 194.558 5.00015 160.109 5Z" fill="#EFCEB2"/>
<g filter="url(#filter2_i_526_65)">
<path d="M219.965 841.194H217.16L-83.582 860.358V665.718L219.965 692.158V841.194Z" fill="#070D22"/>
</g>
<g filter="url(#filter3_i_526_65)">
<path d="M639.24 836.515H641.29L895.357 866.174V602.416L639.24 637.688V836.515Z" fill="#070D22"/>
</g>
<g filter="url(#filter4_i_526_65)">
<path d="M34.042 692.939H36.5566L219.965 727.631V296.457H34.042V692.939Z" fill="#070D22"/>
</g>
<g filter="url(#filter5_i_526_65)">
<path d="M451.421 822.934H452.032L496.953 825.732V785.289L451.421 790.96V822.934Z" fill="#070D22"/>
</g>
<g filter="url(#filter6_i_526_65)">
<path d="M421.065 822.934H420.454L375.533 825.732V785.289L421.065 790.96V822.934Z" fill="#070D22"/>
</g>
<path d="M117.518 587.839H118.899L219.965 613.335V296.457H117.518V587.839Z" fill="#101833"/>
<rect x="109.93" y="96" width="18.9717" height="439.597" fill="#101833"/>
<path d="M5.58594 713.932H4.20117L-96.8613 700.886V863.027H5.58594V713.932Z" fill="#101833"/>
<path d="M431.5 816.939L982.725 865.735H-119.725L431.5 816.939Z" fill="#313957"/>
<path d="M432.596 31C434.133 31 435.379 32.2461 435.379 33.7832V70.4775C438.509 71.8624 440.693 74.994 440.693 78.6367V115.003C440.693 115.19 440.685 115.375 440.674 115.56C444.576 118.397 447.114 122.997 447.114 128.191V151.179C447.114 154.279 446.21 157.169 444.651 159.598H453.567L472.878 213.802H389.662L408.972 159.598H418.36C416.802 157.169 415.897 154.279 415.897 151.179V128.191C415.898 122.769 418.663 117.993 422.86 115.195C422.859 115.131 422.855 115.067 422.855 115.003V78.6367C422.855 74.3846 425.831 70.8291 429.813 69.9355V33.7832C429.813 32.2463 431.059 31.0002 432.596 31Z" fill="#EEBB6F"/>
<rect x="400.785" y="213.247" width="62.4332" height="54.2042" fill="#313957"/>
<rect width="49.0546" height="54.2042" transform="matrix(1 0 0 -1 407.029 339.724)" fill="#313957"/>
<path d="M456.527 339.724L477.769 285.519H435.286L456.527 339.724Z" fill="#313957"/>
<path d="M407.477 339.724L428.718 285.519H386.235L407.477 339.724Z" fill="#313957"/>
<rect width="98.1093" height="21.6817" transform="matrix(1 0 0 -1 382.949 289.133)" fill="#313957"/>
<rect x="407.029" y="339.724" width="49.0546" height="331.549" fill="#070D22"/>
<rect x="320.516" y="671.273" width="222.976" height="135.51" fill="#313957"/>
<rect x="311.596" y="630.62" width="240.814" height="40.6531" fill="#313957"/>
<rect x="267" y="806.783" width="330.004" height="40.6531" fill="#313957"/>
<path d="M741.766 -24C700.856 -23.9997 667.691 15.7386 667.691 64.7578C667.691 64.8376 667.693 64.9173 667.693 64.9971C661.533 63.2766 655.055 62.3584 648.37 62.3584C607.46 62.3584 574.296 96.727 574.296 139.122C574.296 139.125 574.297 139.128 574.297 139.131C573.761 139.126 573.224 139.122 572.686 139.122C530.886 139.122 497.001 155.232 497.001 175.104C497.001 194.977 530.886 211.087 572.686 211.087C587.011 211.087 600.406 209.194 611.827 205.906C622.61 212.256 635.081 215.885 648.37 215.885C662.969 215.885 676.582 211.508 688.053 203.951C701.15 225.603 724.382 240 750.859 240C777.574 240 800.985 225.343 814.016 203.367C824.466 206.36 835.751 207.994 847.522 207.994C901.448 207.994 945.164 173.725 945.164 131.452C945.164 89.1791 901.448 54.9092 847.522 54.9092C836.377 54.9092 825.669 56.3746 815.691 59.0703C813.244 12.701 781.081 -24 741.766 -24Z" fill="#EFCEB2"/>
<path opacity="0.79" d="M593.137 -108C629.132 -108 658.49 -73.8342 659.999 -31.0049C671.319 -34.7598 683.83 -36.8437 696.985 -36.8438C739.485 -36.8437 775.26 -15.0923 785.877 14.4805C786.76 14.4263 787.65 14.3955 788.546 14.3955C812.545 14.3955 832 34.0808 832 58.3633C832 82.6456 812.545 102.33 788.546 102.33C775.185 102.33 763.234 96.2266 755.263 86.627C739.388 96.4407 719.097 102.33 696.985 102.33C678.361 102.33 661.029 98.1524 646.539 90.9707C637.307 122.121 612.56 144.42 583.48 144.42C557.735 144.42 535.385 126.943 524.191 101.318C520.477 101.983 516.657 102.33 512.76 102.33C500.754 102.33 489.486 99.0405 479.744 93.2842C469.426 96.2643 457.323 97.9804 444.38 97.9805C406.615 97.9804 376 83.3771 376 65.3623C376 47.3474 406.615 32.7433 444.38 32.7432C444.866 32.7432 445.351 32.7471 445.835 32.752C445.835 32.749 445.834 32.7461 445.834 32.7432C445.834 -5.68868 475.798 -36.8436 512.76 -36.8438C517.478 -36.8437 522.083 -36.3359 526.525 -35.3701C529.8 -76.1324 558.373 -108 593.137 -108Z" fill="#EFCEB2"/>
</g>
<defs>
<filter id="filter0_d_526_65" x="-4" y="-3" width="858" height="858" filterUnits="userSpaceOnUse" color-interpolation-filters="sRGB">
<feFlood flood-opacity="0" result="BackgroundImageFix"/>
<feColorMatrix in="SourceAlpha" type="matrix" values="0 0 0 0 0 0 0 0 0 0 0 0 0 0 0 0 0 0 127 0" result="hardAlpha"/>
<feOffset dy="4"/>
<feGaussianBlur stdDeviation="2"/>
<feComposite in2="hardAlpha" operator="out"/>
<feColorMatrix type="matrix" values="0 0 0 0 0 0 0 0 0 0 0 0 0 0 0 0 0 0 0.25 0"/>
<feBlend mode="normal" in2="BackgroundImageFix" result="effect1_dropShadow_526_65"/>
<feBlend mode="normal" in="SourceGraphic" in2="effect1_dropShadow_526_65" result="shape"/>
</filter>
<filter id="filter1_i_526_65" x="552" y="362" width="300" height="76.0469" filterUnits="userSpaceOnUse" color-interpolation-filters="sRGB">
<feFlood flood-opacity="0" result="BackgroundImageFix"/>
<feBlend mode="normal" in="SourceGraphic" in2="BackgroundImageFix" result="shape"/>
<feColorMatrix in="SourceAlpha" type="matrix" values="0 0 0 0 0 0 0 0 0 0 0 0 0 0 0 0 0 0 127 0" result="hardAlpha"/>
<feOffset dy="4"/>
<feGaussianBlur stdDeviation="2"/>
<feComposite in2="hardAlpha" operator="arithmetic" k2="-1" k3="1"/>
<feColorMatrix type="matrix" values="0 0 0 0 0 0 0 0 0 0 0 0 0 0 0 0 0 0 0.25 0"/>
<feBlend mode="normal" in2="shape" result="effect1_innerShadow_526_65"/>
</filter>
<filter id="filter2_i_526_65" x="-83.582" y="665.718" width="303.547" height="198.64" filterUnits="userSpaceOnUse" color-interpolation-filters="sRGB">
<feFlood flood-opacity="0" result="BackgroundImageFix"/>
<feBlend mode="normal" in="SourceGraphic" in2="BackgroundImageFix" result="shape"/>
<feColorMatrix in="SourceAlpha" type="matrix" values="0 0 0 0 0 0 0 0 0 0 0 0 0 0 0 0 0 0 127 0" result="hardAlpha"/>
<feOffset dy="4"/>
<feGaussianBlur stdDeviation="2"/>
<feComposite in2="hardAlpha" operator="arithmetic" k2="-1" k3="1"/>
<feColorMatrix type="matrix" values="0 0 0 0 0 0 0 0 0 0 0 0 0 0 0 0 0 0 0.25 0"/>
<feBlend mode="normal" in2="shape" result="effect1_innerShadow_526_65"/>
</filter>
<filter id="filter3_i_526_65" x="639.24" y="602.416" width="256.117" height="267.758" filterUnits="userSpaceOnUse" color-interpolation-filters="sRGB">
<feFlood flood-opacity="0" result="BackgroundImageFix"/>
<feBlend mode="normal" in="SourceGraphic" in2="BackgroundImageFix" result="shape"/>
<feColorMatrix in="SourceAlpha" type="matrix" values="0 0 0 0 0 0 0 0 0 0 0 0 0 0 0 0 0 0 127 0" result="hardAlpha"/>
<feOffset dy="4"/>
<feGaussianBlur stdDeviation="2"/>
<feComposite in2="hardAlpha" operator="arithmetic" k2="-1" k3="1"/>
<feColorMatrix type="matrix" values="0 0 0 0 0 0 0 0 0 0 0 0 0 0 0 0 0 0 0.25 0"/>
<feBlend mode="normal" in2="shape" result="effect1_innerShadow_526_65"/>
</filter>
<filter id="filter4_i_526_65" x="34.043" y="296.457" width="185.922" height="435.175" filterUnits="userSpaceOnUse" color-interpolation-filters="sRGB">
<feFlood flood-opacity="0" result="BackgroundImageFix"/>
<feBlend mode="normal" in="SourceGraphic" in2="BackgroundImageFix" result="shape"/>
<feColorMatrix in="SourceAlpha" type="matrix" values="0 0 0 0 0 0 0 0 0 0 0 0 0 0 0 0 0 0 127 0" result="hardAlpha"/>
<feOffset dy="4"/>
<feGaussianBlur stdDeviation="2"/>
<feComposite in2="hardAlpha" operator="arithmetic" k2="-1" k3="1"/>
<feColorMatrix type="matrix" values="0 0 0 0 0 0 0 0 0 0 0 0 0 0 0 0 0 0 0.25 0"/>
<feBlend mode="normal" in2="shape" result="effect1_innerShadow_526_65"/>
</filter>
<filter id="filter5_i_526_65" x="451.422" y="785.289" width="45.5312" height="44.4434" filterUnits="userSpaceOnUse" color-interpolation-filters="sRGB">
<feFlood flood-opacity="0" result="BackgroundImageFix"/>
<feBlend mode="normal" in="SourceGraphic" in2="BackgroundImageFix" result="shape"/>
<feColorMatrix in="SourceAlpha" type="matrix" values="0 0 0 0 0 0 0 0 0 0 0 0 0 0 0 0 0 0 127 0" result="hardAlpha"/>
<feOffset dy="4"/>
<feGaussianBlur stdDeviation="2"/>
<feComposite in2="hardAlpha" operator="arithmetic" k2="-1" k3="1"/>
<feColorMatrix type="matrix" values="0 0 0 0 0 0 0 0 0 0 0 0 0 0 0 0 0 0 0.25 0"/>
<feBlend mode="normal" in2="shape" result="effect1_innerShadow_526_65"/>
</filter>
<filter id="filter6_i_526_65" x="375.533" y="785.289" width="45.5332" height="44.4434" filterUnits="userSpaceOnUse" color-interpolation-filters="sRGB">
<feFlood flood-opacity="0" result="BackgroundImageFix"/>
<feBlend mode="normal" in="SourceGraphic" in2="BackgroundImageFix" result="shape"/>
<feColorMatrix in="SourceAlpha" type="matrix" values="0 0 0 0 0 0 0 0 0 0 0 0 0 0 0 0 0 0 127 0" result="hardAlpha"/>
<feOffset dy="4"/>
<feGaussianBlur stdDeviation="2"/>
<feComposite in2="hardAlpha" operator="arithmetic" k2="-1" k3="1"/>
<feColorMatrix type="matrix" values="0 0 0 0 0 0 0 0 0 0 0 0 0 0 0 0 0 0 0.25 0"/>
<feBlend mode="normal" in2="shape" result="effect1_innerShadow_526_65"/>
</filter>
<linearGradient id="paint0_linear_526_65" x1="636" y1="1272" x2="-336" y2="1272" gradientUnits="userSpaceOnUse">
<stop offset="0.0962033" stop-color="#02054E"/>
<stop offset="0.384669" stop-color="#FF0000"/>
<stop offset="0.826983" stop-color="#EFB25D"/>
</linearGradient>
<clipPath id="clip0_526_65">
<rect width="850" height="850" rx="125" fill="white"/>
</clipPath>
</defs>
</svg>
