<svg width="64" height="64" viewBox="0 0 64 64" fill="none" xmlns="http://www.w3.org/2000/svg">
<path d="M0 32C0 14.3269 14.3269 0 32 0V0C49.6731 0 64 14.3269 64 32V32C64 49.6731 49.6731 64 32 64V64C14.3269 64 0 49.6731 0 32V32Z" fill="#EB775E" fill-opacity="0.3"/>
<g clip-path="url(#clip0_210_34)">
<path d="M33.3887 46C36.3945 42.2383 43.25 33.1211 43.25 28C43.25 21.7891 38.2109 16.75 32 16.75C25.7891 16.75 20.75 21.7891 20.75 28C20.75 33.1211 27.6055 42.2383 30.6113 46C31.332 46.8965 32.668 46.8965 33.3887 46ZM32 24.25C32.9946 24.25 33.9484 24.6451 34.6517 25.3483C35.3549 26.0516 35.75 27.0054 35.75 28C35.75 28.9946 35.3549 29.9484 34.6517 30.6517C33.9484 31.3549 32.9946 31.75 32 31.75C31.0054 31.75 30.0516 31.3549 29.3483 30.6517C28.6451 29.9484 28.25 28.9946 28.25 28C28.25 27.0054 28.6451 26.0516 29.3483 25.3483C30.0516 24.6451 31.0054 24.25 32 24.25Z" fill="#EB775E"/>
</g>
<defs>
<clipPath id="clip0_210_34">
<rect width="22.5" height="30" fill="white" transform="translate(20.75 16.75)"/>
</clipPath>
</defs>
</svg>
